<svg width="38" height="12" viewBox="0 0 38 12" fill="none" xmlns="http://www.w3.org/2000/svg">
<mask id="mask0_67_609" style="mask-type:luminance" maskUnits="userSpaceOnUse" x="0" y="0" width="38" height="12">
<path d="M37.5364 0.619141H0.380859V11.5715H37.5364V0.619141Z" fill="white" stroke="white" stroke-width="0.4"/>
</mask>
<g mask="url(#mask0_67_609)">
<path d="M3.44063 8.65759C3.8049 9.21613 4.4363 9.67754 5.23769 9.99324C6.79191 10.6246 8.92896 10.8432 10.7017 10.6489C11.5274 10.5518 12.2802 10.3818 12.8631 10.1147C13.883 9.65326 14.8058 8.68187 15.2187 7.85619C15.2187 7.83191 15.243 7.80762 15.2673 7.78334C15.7044 6.86052 16.2629 4.94203 15.7287 3.65495C15.1944 2.34357 13.5673 1.88217 11.5274 1.61503C10.8474 1.5179 10.1189 1.46933 9.36608 1.39647C7.49616 1.25076 5.82052 1.25077 4.58201 1.68789C3.39206 2.10073 2.59066 2.92641 2.42067 4.43205C2.39639 4.62633 2.39639 4.82061 2.39639 5.01489C2.44496 6.4234 3.0035 7.97762 3.44063 8.65759ZM22.6498 7.85619C22.7712 8.12332 22.9655 8.39045 23.1841 8.65759C23.6455 9.24042 24.3012 9.79897 25.0054 10.1147C25.8797 10.5032 27.1425 10.7218 28.4538 10.7218C30.688 10.7218 33.0922 10.1632 34.185 8.99757C34.2822 8.90043 34.3793 8.77901 34.4521 8.65759C34.9378 7.90476 35.6178 5.98627 35.4721 4.45634C35.4478 4.16492 35.3992 3.92208 35.3264 3.67923C34.8407 2.10073 33.4322 1.5179 31.538 1.37219C30.6394 1.29933 29.6195 1.3479 28.5267 1.42076C27.4339 1.5179 26.3653 1.61504 25.4182 1.78503C23.8397 2.07644 22.6255 2.58642 22.1641 3.67923C22.0912 3.87351 22.0184 4.09207 21.9941 4.31063C21.7998 5.54915 22.2855 7.10337 22.6498 7.85619ZM5.26198 0.667934C6.84048 0.59508 8.3947 0.619364 10.0703 0.740787C10.4103 0.765072 10.726 0.789357 11.066 0.837926C13.2031 1.12934 15.3887 1.80931 17.4772 2.07644C17.9871 2.1493 18.4728 2.17358 18.9585 2.17358C21.0956 2.1493 23.4026 1.44504 25.6854 1.0322C26.4139 0.886495 27.1425 0.789357 27.871 0.740787C28.721 0.692218 29.5466 0.643648 30.3723 0.643648C32.7765 0.595079 35.0835 0.789357 37.5606 1.3479C37.3906 1.95502 37.5606 2.58642 37.3663 3.29068C37.2692 3.65495 36.8806 4.0435 36.6378 4.48063C36.5892 4.57776 36.5406 4.6749 36.4921 4.77204C35.7878 6.47197 35.6907 8.24475 34.9621 9.41041C34.865 9.55612 34.7678 9.70183 34.6464 9.84754C33.3108 11.2803 30.5909 11.766 28.0167 11.5232C25.9768 11.3532 24.0583 10.7461 23.0141 9.84754C22.9898 9.82325 22.9412 9.77468 22.9169 9.7504C22.3584 9.21613 21.6056 8.12332 21.1684 7.20051C20.5856 5.96199 20.2699 4.43206 19.2014 4.3592C19.1285 4.3592 19.08 4.3592 19.0071 4.3592C18.9342 4.3592 18.8857 4.3592 18.8128 4.3592C17.7686 4.43206 17.4529 5.96199 16.87 7.20051C16.6272 7.71048 16.2872 8.26903 15.9229 8.77901C15.6072 9.21613 15.2673 9.60469 15.0001 9.84754C14.1987 10.5518 12.8388 11.0861 11.3089 11.3532C9.09895 11.766 6.54906 11.6446 4.77628 10.8189C4.21774 10.5518 3.73204 10.2361 3.36777 9.82325C2.51781 8.90043 2.34782 7.41907 1.91069 5.88913C1.78927 5.50058 1.66785 5.11203 1.52214 4.72347C1.30358 4.18921 0.769314 3.70352 0.647891 3.26639C0.453613 2.53785 0.623606 1.90645 0.453613 1.32362C2.0564 0.935065 3.65919 0.740788 5.26198 0.667934Z" fill="currentColor" stroke="currentColor" stroke-width="0.4"/>
</g>
</svg>
