<svg width="24" height="24" viewBox="0 0 24 24" fill="none" xmlns="http://www.w3.org/2000/svg">
<path d="M11.5223 5C7.92765 5 5 7.92635 5 11.521C5 15.1156 7.92765 18.047 11.5223 18.047C13.1016 18.047 14.5524 17.4805 15.6833 16.541L17.9726 18.8291C18.0956 18.9419 18.2573 19.0029 18.4241 18.9993C18.591 18.9958 18.75 18.9279 18.8679 18.8099C18.9859 18.6919 19.0538 18.5329 19.0574 18.3661C19.0609 18.1993 18.9999 18.0375 18.8871 17.9146L16.5928 15.619C17.5015 14.4973 18.0483 13.0714 18.0483 11.521C18.0483 7.92635 15.1169 5 11.5223 5ZM11.5223 6.29161C14.4189 6.29161 16.7567 8.62437 16.7567 11.521C16.7567 14.4176 14.4189 16.7555 11.5223 16.7555C8.62567 16.7555 6.29285 14.4176 6.29285 11.521C6.29285 8.62437 8.62567 6.29161 11.5223 6.29161Z" fill="currentColor"/>
</svg>
