<svg width="28" height="28" viewBox="0 0 28 28" fill="none" xmlns="http://www.w3.org/2000/svg">
<path d="M24.1644 11.5024L23.184 12.2825C22.0655 13.1724 22.0655 14.8276 23.184 15.7175L24.1644 16.4976C24.5119 16.774 24.6016 17.2528 24.3766 17.6295L22.4405 20.8705C22.2155 21.2472 21.7417 21.4114 21.3202 21.2588L20.1309 20.8282C18.7743 20.3371 17.2912 21.1646 17.053 22.5457L16.8442 23.7565C16.7702 24.1855 16.3861 24.5 15.9361 24.5H12.0639C11.6139 24.5 11.2298 24.1855 11.1558 23.7565L10.947 22.5457C10.7088 21.1646 9.22566 20.3371 7.86908 20.8282L6.67983 21.2588C6.25834 21.4114 5.78451 21.2472 5.55945 20.8705L3.62339 17.6295C3.39838 17.2528 3.4881 16.774 3.83556 16.4976L4.81609 15.7175C5.93449 14.8276 5.93449 13.1724 4.81609 12.2825L3.83556 11.5024C3.4881 11.2259 3.39838 10.7472 3.62339 10.3705L5.55945 7.12949C5.78451 6.75278 6.25834 6.58851 6.67983 6.74112L7.86908 7.17171C9.22566 7.6629 10.7088 6.83531 10.947 5.45425L11.1558 4.2435C11.2298 3.81447 11.6139 3.5 12.0639 3.5H15.9361C16.3861 3.5 16.7702 3.81447 16.8442 4.2435L17.053 5.45425C17.2912 6.83531 18.7743 7.6629 20.1309 7.17171L21.3202 6.74112C21.7417 6.58851 22.2155 6.75278 22.4405 7.12949L24.3766 10.3705C24.6016 10.7472 24.5119 11.2259 24.1644 11.5024Z" stroke="currentColor" stroke-width="1.2" stroke-miterlimit="10" stroke-linecap="round" stroke-linejoin="round"/>
<circle cx="14" cy="14" r="3.5" stroke="currentColor" stroke-width="1.2" stroke-miterlimit="10" stroke-linecap="round" stroke-linejoin="round"/>
</svg>
